<svg viewBox="0 0 23.821 6.592" xmlns="http://www.w3.org/2000/svg">
	<path d="M3.295.001a3.295 3.295 0 100 6.59 3.295 3.295 0 000-6.59m0 1.362c1.067 0 1.934.867 1.934 1.933a1.935 1.935 0 01-1.934 1.933 1.935 1.935 0 01-1.933-1.933c0-1.066.868-1.933 1.933-1.933M11.911.001a3.296 3.296 0 100 6.59 3.296 3.296 0 000-6.59m0 1.362c1.066 0 1.933.867 1.933 1.933a1.935 1.935 0 01-1.933 1.933 1.935 1.935 0 01-1.933-1.933c0-1.066.867-1.933 1.933-1.933M20.526.001a3.295 3.295 0 100 6.59 3.295 3.295 0 000-6.59m0 1.362c1.066 0 1.933.867 1.933 1.933a1.935 1.935 0 01-1.933 1.933 1.935 1.935 0 01-1.933-1.933c0-1.066.867-1.933 1.933-1.933">
  </path>
</svg>
